# xmcd
#
# Track frame offsets:
# 150
# 12138
# 27618
# 41715
# 55846
# 69784
# 82552
# 96472
# 111620
# 126206
# 139280
# 150481
# 168012
# 182358
# 200109
# 216466
# 234776
# 247920
#
# Disc length: 3515 seconds
#
#
# Revision: 0
# Processed by: cddbd v1.5.1PL2 Copyright (c) Steve Scherf et al.
# Submitted via: FreeRIP 2.945 
#
DISCID=ee0db912
DTITLE=Rodeio Nacional
DYEAR=1900
DGENRE=Country
TTITLE0=Hugo and Thiago - Oito segundos
TTITLE1=Bruno e Marrone - Que pescar que nada
TTITLE2=Rio Negro and Solimões - Ajeita o trem ai
TTITLE3=Edson and Hudson - Galera coracao
TTITLE4=Sergio Paulo e Luizinho - Me da, me da
TTITLE5=Joao Victor e Vinicius - O Chao Balanca
TTITLE6=Kid and Tonhao - Poeira subiu
TTITLE7=Teodoro and Sampaio - Cowboy conquistador
TTITLE8=Gino e Geno - A galera do chapeu
TTITLE9=Banda colorado - Explode coracao
TTITLE10=Roniel e Rafael - Reza pra nois
TTITLE11=Chitaozinho and Xororo - Aqui o sistema e bruto
TTITLE12=Ferdinando and Forasteiro - Vou ligeiro
TTITLE13=Grupo Tradicao - Brasileira
TTITLE14=Guilherme and Santiago - Alo, meu povo
TTITLE15=Rick and Renner - Bebedeira
TTITLE16=Thulio e Thiago - Aparpa
TTITLE17=Sergio Paulo e Luizinho - O bicho vai pegar
EXTD=
EXTT0=
EXTT1=
EXTT2=
EXTT3=
EXTT4=
EXTT5=
EXTT6=
EXTT7=
EXTT8=
EXTT9=
EXTT10=
EXTT11=
EXTT12=
EXTT13=
EXTT14=
EXTT15=
EXTT16=
EXTT17=
PLAYORDER=
